<?xml version="1.0" encoding="UTF-8"?>
<svg id="_레이어_2" data-name="레이어 2" xmlns="http://www.w3.org/2000/svg" viewBox="0 0 283.46 283.46">
  <g id="_레이어_1-2" data-name="레이어 1">
    <path d="M141.73,0C63.46,0,0,63.46,0,141.73s63.46,141.73,141.73,141.73,141.73-63.46,141.73-141.73S220.01,0,141.73,0ZM259.37,141.73c0,16.27-3.31,31.78-9.28,45.87l-30.04-17.34V53.96c24.13,21.54,39.32,52.88,39.32,87.77ZM153.78,132V24.7c15.08,1.53,29.32,5.92,42.17,12.61v119.04l-42.17-24.35ZM129.69,24.7v22.11L24.54,151.96c-.29-3.37-.45-6.78-.45-10.23,0-60.9,46.28-110.99,105.59-117.03ZM30.49,180.08l99.19-99.19v55.16l-79.52,79.52c-8.47-10.5-15.18-22.47-19.67-35.49ZM141.73,259.37c-28.32,0-54.3-10.01-74.61-26.68l77.91-77.91,93.41,53.93c-21.24,30.61-56.63,50.66-96.71,50.66Z"/>
  </g>
</svg>